<svg version="1.1" viewBox="0.0 0.0 480.0 480.0" fill="none" stroke="none" stroke-linecap="square" stroke-miterlimit="10" xmlns:xlink="http://www.w3.org/1999/xlink" xmlns="http://www.w3.org/2000/svg"><clipPath id="p.0"><path d="m0 0l480.0 0l0 480.0l-480.0 0l0 -480.0z" clip-rule="nonzero"/></clipPath><g clip-path="url(#p.0)"><path fill="#000000" fill-opacity="0.0" d="m0 0l480.0 0l0 480.0l-480.0 0z" fill-rule="evenodd"/><path fill="#eeeeee" d="m152.10583 393.84427l-48.710632 -11.519684l0 0c-26.902138 -6.362152 -43.560005 -33.329803 -37.20639 -60.233948l21.9534 -92.960815l-13.91732 -3.291336l34.4085 -21.254044l21.260788 34.419403l-13.91732 -3.291336l-21.9534 92.9608l0 0c-2.7229767 11.530334 4.416107 23.087921 15.945595 25.814545l48.710632 11.519684z" fill-rule="evenodd"/><path fill="#eeeeee" d="m172.18307 99.84035l38.141724 -32.409454l0 0c21.065094 -17.899242 52.65033 -15.331448 70.54761 5.7353287l61.832397 72.782616l10.897644 -9.259842l-3.277649 40.316696l-40.312897 -3.2773285l10.897614 -9.259842l-61.832397 -72.78261l0 0c-7.6702576 -9.0286255 -21.206787 -10.129105 -30.23468 -2.4580002l-38.14174 32.409447z" fill-rule="evenodd"/><path fill="#eeeeee" d="m406.92896 270.63632l14.248047 47.980316l0 0c7.8689575 26.49881 -7.2333374 54.359863 -33.731964 62.22946l-91.53201 27.183289l4.070862 13.708649l-35.55887 -19.274933l19.27539 -35.559692l4.0708923 13.708649l91.53201 -27.183289l0 0c11.356537 -3.3726807 17.828949 -15.313141 14.456543 -26.66977l-14.248047 -47.980316z" fill-rule="evenodd"/><path fill="#eeeeee" d="m223.91914 312.18546l24.826889 -13.568939l4.8881226 27.867493z" fill-rule="evenodd"/><path fill="#eeeeee" d="m224.01724 312.22974l-43.47023 128.36496l73.18524 -114.06641z" fill-rule="evenodd"/><path fill="#eeeeee" d="m185.75813 386.32764l33.9438 16.333405l-5.7358093 11.920044l-33.9438 -16.333405z" fill-rule="evenodd"/><path fill="#eeeeee" d="m344.98953 237.73212l0 0c0 -18.17189 14.142883 -32.903107 31.58899 -32.903107l0 0c8.37793 0 16.41272 3.466568 22.336792 9.6371c5.924103 6.170532 9.252197 14.539566 9.252197 23.266006l0 0c0 18.17189 -14.142853 32.903107 -31.58899 32.903107l0 0c-17.446106 0 -31.58899 -14.731216 -31.58899 -32.903107z" fill-rule="evenodd"/><path fill="#eeeeee" d="m344.98953 239.18881l6.18985 -55.14554l6.1898804 55.14554z" fill-rule="evenodd"/><path fill="#eeeeee" d="m352.02917 227.53848l7.5632935 -47.777115l7.5632935 47.777115z" fill-rule="evenodd"/><path fill="#eeeeee" d="m362.15118 217.68454l6.980072 -51.30455l6.9800415 51.30455z" fill-rule="evenodd"/><path fill="#eeeeee" d="m372.82825 211.45274l6.18985 -38.840958l6.18985 38.840958z" fill-rule="evenodd"/><path fill="#eeeeee" d="m382.76367 216.0972l5.0045776 -33.393036l5.0045776 33.393036z" fill-rule="evenodd"/><path fill="#eeeeee" d="m387.65756 221.81621l6.9800415 -42.05484l6.980072 42.05484z" fill-rule="evenodd"/><path fill="#eeeeee" d="m394.7066 239.18881l6.9800415 -42.05484l6.980072 42.05484z" fill-rule="evenodd"/><path fill="#000000" fill-opacity="0.0" d="m188.82939 160.95276l-59.527557 -59.527565" fill-rule="evenodd"/><path stroke="#eeeeee" stroke-width="4.0" stroke-linejoin="round" stroke-linecap="butt" d="m188.82939 160.95276l-59.527557 -59.527565" fill-rule="evenodd"/><path fill="#000000" fill-opacity="0.0" d="m188.82939 160.95276l-57.51181 57.51181" fill-rule="evenodd"/><path stroke="#eeeeee" stroke-width="4.0" stroke-linejoin="round" stroke-linecap="butt" d="m188.82939 160.95276l-57.51181 57.51181" fill-rule="evenodd"/><path fill="#000000" fill-opacity="0.0" d="m131.31758 104.57481l0 0c0 7.6265335 -3.0296326 14.940712 -8.422409 20.333496c-5.3927765 5.392769 -12.706955 8.422401 -20.333496 8.422401l0 -28.755898z" fill-rule="evenodd"/><path fill="#000000" fill-opacity="0.0" d="m131.31758 104.57481l0 0c0 7.6265335 -3.0296326 14.940712 -8.422409 20.333496c-5.3927765 5.392769 -12.706955 8.422401 -20.333496 8.422401" fill-rule="evenodd"/><path stroke="#eeeeee" stroke-width="4.0" stroke-linejoin="round" stroke-linecap="butt" d="m131.31758 104.57481l0 0c0 7.6265335 -3.0296326 14.940712 -8.422409 20.333496c-5.3927765 5.392769 -12.706955 8.422401 -20.333496 8.422401" fill-rule="evenodd"/><path fill="#000000" fill-opacity="0.0" d="m73.80577 162.08661l0 0c0 -7.626541 3.0296326 -14.94072 8.422417 -20.333496c5.3927765 -5.3927765 12.706955 -8.422409 20.333488 -8.422409l0 28.755905z" fill-rule="evenodd"/><path fill="#000000" fill-opacity="0.0" d="m73.80577 162.08661l0 0c0 -7.626541 3.0296326 -14.94072 8.422417 -20.333496c5.3927765 -5.3927765 12.706955 -8.422409 20.333488 -8.422409" fill-rule="evenodd"/><path stroke="#eeeeee" stroke-width="4.0" stroke-linejoin="round" stroke-linecap="butt" d="m73.80577 162.08661l0 0c0 -7.626541 3.0296326 -14.94072 8.422417 -20.333496c5.3927765 -5.3927765 12.706955 -8.422409 20.333488 -8.422409" fill-rule="evenodd"/><path fill="#000000" fill-opacity="0.0" d="m131.31758 215.72704l0 0c0 -7.112808 -3.0296326 -13.934311 -8.422409 -18.963821c-5.3927765 -5.0295258 -12.706955 -7.855072 -20.333496 -7.855072l0 26.818893z" fill-rule="evenodd"/><path fill="#000000" fill-opacity="0.0" d="m131.31758 215.72704l0 0c0 -7.112808 -3.0296326 -13.934311 -8.422409 -18.963821c-5.3927765 -5.0295258 -12.706955 -7.855072 -20.333496 -7.855072" fill-rule="evenodd"/><path stroke="#eeeeee" stroke-width="4.0" stroke-linejoin="round" stroke-linecap="butt" d="m131.31758 215.72704l0 0c0 -7.112808 -3.0296326 -13.934311 -8.422409 -18.963821c-5.3927765 -5.0295258 -12.706955 -7.855072 -20.333496 -7.855072" fill-rule="evenodd"/><path fill="#000000" fill-opacity="0.0" d="m73.80577 162.08661l0 0c0 7.1128235 3.0296326 13.934311 8.422417 18.963837c5.3927765 5.0295105 12.706955 7.855072 20.333488 7.855072l0 -26.818909z" fill-rule="evenodd"/><path fill="#000000" fill-opacity="0.0" d="m73.80577 162.08661l0 0c0 7.1128235 3.0296326 13.934311 8.422417 18.963837c5.3927765 5.0295105 12.706955 7.855072 20.333488 7.855072" fill-rule="evenodd"/><path stroke="#eeeeee" stroke-width="4.0" stroke-linejoin="round" stroke-linecap="butt" d="m73.80577 162.08661l0 0c0 7.1128235 3.0296326 13.934311 8.422417 18.963837c5.3927765 5.0295105 12.706955 7.855072 20.333488 7.855072" fill-rule="evenodd"/><path fill="#000000" fill-opacity="0.0" d="m188.82939 160.96326l-144.7559 -0.85040283" fill-rule="evenodd"/><path stroke="#eeeeee" stroke-width="4.0" stroke-linejoin="round" stroke-linecap="butt" d="m188.82939 160.96326l-120.75632 -0.70939636" fill-rule="evenodd"/><path fill="#eeeeee" stroke="#eeeeee" stroke-width="4.0" stroke-linecap="butt" d="m68.111885 153.64703l-18.190887 6.500183l18.113266 6.713455z" fill-rule="evenodd"/></g></svg>